<?xml version="1.0" encoding="UTF-8" standalone="no"?>
<svg
   xmlns="http://www.w3.org/2000/svg"
   xmlns:svg="http://www.w3.org/2000/svg"
   xmlns:oryx="http://www.b3mn.org/oryx"
   xmlns:xlink="http://www.w3.org/1999/xlink"

   width="102"
   height="82"
   version="1.0">
  <defs></defs>
  <oryx:magnets>
  	<oryx:magnet oryx:cx="1" oryx:cy="20" oryx:anchors="left" />
  	<oryx:magnet oryx:cx="1" oryx:cy="40" oryx:anchors="left" />
  	<oryx:magnet oryx:cx="1" oryx:cy="60" oryx:anchors="left" />
  	
  	<oryx:magnet oryx:cx="25" oryx:cy="79" oryx:anchors="bottom" />
  	<oryx:magnet oryx:cx="50" oryx:cy="79" oryx:anchors="bottom" />
  	<oryx:magnet oryx:cx="75" oryx:cy="79" oryx:anchors="bottom" />
  	
  	<oryx:magnet oryx:cx="99" oryx:cy="20" oryx:anchors="right" />
  	<oryx:magnet oryx:cx="99" oryx:cy="40" oryx:anchors="right" />
  	<oryx:magnet oryx:cx="99" oryx:cy="60" oryx:anchors="right" />
  	
  	<oryx:magnet oryx:cx="25" oryx:cy="1" oryx:anchors="top" />
  	<oryx:magnet oryx:cx="50" oryx:cy="1" oryx:anchors="top" />
  	<oryx:magnet oryx:cx="75" oryx:cy="1" oryx:anchors="top" />
  	
  	<oryx:magnet oryx:cx="50" oryx:cy="40" oryx:default="yes" />
  </oryx:magnets>
  <g pointer-events="fill" oryx:minimumSize="50 40">
  	<defs>
		<radialGradient id="background" cx="10%" cy="10%" r="100%" fx="10%" fy="10%">
			<stop offset="0%" stop-color="#ffffff" stop-opacity="1"/>
			<stop id="fill_el" offset="100%" stop-color="#ffffcc" stop-opacity="1"/>
		</radialGradient>
	</defs>
	
	<rect id="text_frame" oryx:anchors="bottom top right left" x="1" y="1" width="94" height="79" rx="10" ry="10" stroke="none" stroke-width="0" fill="none" />
    <rect id="callActivity" oryx:resize="vertical horizontal" oryx:anchors="bottom top right left" x="0" y="0" width="100" height="80" rx="10" ry="10" stroke="black" stroke-width="4" fill="none" />
	<rect id="bg_frame" oryx:resize="vertical horizontal" x="0" y="0" width="100" height="80" rx="10" ry="10" stroke="black" stroke-width="1" fill="url(#background) #ffffcc" />
		<text 
			font-size="12" 
			id="text_name" 
			x="50" 
			y="40" 
			oryx:align="middle center"
			oryx:fittoelem="text_frame"
			stroke="black">
		</text>
    <g id="manualTask" transform="scale(0.7,0.7) translate(8,8)">
    	<path oryx:anchors="top left" id="hand"  style="opacity:1;fill:none;fill-opacity:1;stroke:#000000;stroke-width:1" 
			d="M0.5,3.751l4.083-3.25c0,0,11.166,0.083,12.083,0.083s-2.417,2.917-1.5,2.917
				s11.667,0,12.584,0c1.166,1.708-0.168,3.167-0.834,3.667s0.875,1.917-1,4.417c-0.75,0.25,0.75,1.875-1.333,3.333
				c-1.167,0.583,0.583,1.542-1.25,2.833c-1.167,0-20.833,0.083-20.833,0.083l-2-1.333V3.751z"/>
		<path oryx:anchors="top left" id="finger" style="opacity:1;fill:none; stroke:#000000; stroke-width:2" d="M 13.5 7 L 27 7" />
		<path oryx:anchors="top left" id="finger1" style="opacity:1;fill:none; stroke:#000000; stroke-width:2" d="M 13.5 11 L 26 11" />
		<path oryx:anchors="top left" id="finger2" style="opacity:1;fill:none; stroke:#000000; stroke-width:1.5" d="M 14 14.5 L 25 14.5" />
		<path oryx:anchors="top left" id="thumb" style="opacity:1;fill:none; stroke:#000000; stroke-width:1.5" d="M 8.2 3.1 L 15 3.1" />
	</g>
	
	<g id="businessRuleTask" transform="scale(0.7,0.7) translate(8,8)">
		<rect oryx:anchors="top left" id="top" x="0" y="0" width="22" height="4" style="opacity:1;fill:#B3B1B3;fill-opacity:1;stroke:#000000"/>
		<rect oryx:anchors="top left" id="rect" x="0" y="4" style="opacity:1;fill:none;stroke:#000000" width="22" height="12"/>
		<path oryx:anchors="top left" id="row" style="opacity:1;fill:none;stroke:#000000" d="M 0 10 L 22 10" />
		<path oryx:anchors="top left" id="col" style="opacity:1; fill:none; stroke:#000000"	d="M 7 4 L 7 16" />
	</g>
	
	<g id="scriptTask" transform="scale(0.7,0.7) translate(8,8)">
		<path oryx:anchors="top left" id="paper" style="opacity:1;fill:none;stroke:#000000" 
		d="M6.402,0.5h14.5c0,0-5.833,2.833-5.833,5.583s4.417,6,4.417,9.167
			s-4.167,5.083-4.167,5.083H0.235c0,0,5-2.667,5-5s-4.583-6.75-4.583-9.25S6.402,0.5,6.402,0.5z"/>
		<path oryx:anchors="top left" id="line1" style="opacity:1;fill:none;stroke:#000000;stroke-width:1.5" d="M 3.5 4.5 L 13.5 4.5" />
		<path oryx:anchors="top left" id="line2" style="opacity:1;fill:none;stroke:#000000;stroke-width:1.5" d="M 3.8 8.5 L 13.8 8.5" />
		<path oryx:anchors="top left"  id="line3" style="opacity:1;fill:none;stroke:#000000;stroke-width:1.5" d="M 6.3 12.5 L 16.3 12.5" />
		<path oryx:anchors="top left" id="line4" style="opacity:1;fill:none;stroke:#000000;stroke-width:1.5" d="M 6.5 16.5 L 16.5 16.5" />
	</g>
	
	<g id="userTask" transform="scale(0.7,0.7) translate(8,8)">
		<path oryx:anchors="top left" style="opacity:1;fill:#F4F6F7;stroke:#000000"
		 d="M0.585,24.167h24.083v-7.833c0,0-2.333-3.917-7.083-5.167h-9.25
			c-4.417,1.333-7.833,5.75-7.833,5.75L0.585,24.167z"/>
		<path oryx:anchors="top left" style="opacity:1;fill:none;stroke:#000000" d="M 6 20 L 6 24" />
		<path oryx:anchors="top left" style="opacity:1;fill:none;stroke:#000000" d="M 20 20 L 20 24" />
		<circle oryx:anchors="top left" fill="#000000" stroke="#000000" cx="13.002" cy="5.916" r="5.417"/>
		<path oryx:anchors="top left" style="opacity:1;fill:#F0EFF0;stroke:#000000"
		d="M8.043,7.083c0,0,2.814-2.426,5.376-1.807s4.624-0.693,4.624-0.693
			c0.25,1.688,0.042,3.75-1.458,5.584c0,0,1.083,0.75,1.083,1.5s0.125,1.875-1,3s-5.5,1.25-6.75,0S8.668,12.834,8.668,12
			s0.583-1.25,1.25-1.917C8.835,9.5,7.419,7.708,8.043,7.083z"/>
	</g>
	
	<g id="serviceTask" transform="scale(0.7,0.7) translate(8,8)">
		<polygon oryx:anchors="top left" id="teethForeground" style="opacity:1;fill:#ffffff;stroke:#000000" points="15.392,5.064 17.954,2.502 20.347,4.895 17.786,7.455 
			18.729,9.732 22.353,9.732 22.353,13.115 18.731,13.115 17.788,15.392 20.351,17.955 17.958,20.347 15.397,17.786 13.12,18.729 
			13.12,22.353 9.737,22.353 9.737,18.731 7.46,17.788 4.897,20.35 2.506,17.958 5.066,15.397 4.124,13.12 0.5,13.12 0.5,9.737 
			4.121,9.737 5.065,7.461 2.503,4.898 4.895,2.506 7.455,5.066 9.732,4.125 9.732,0.5 13.116,0.5 13.116,4.121 "/>
		<circle oryx:anchors="top left" id="ringForeground" style="opacity:1;fill:none;stroke:#000000" cx="11.427" cy="11.426" r="3.714"/>
		<polygon oryx:anchors="top left" id="teethBackground" style="opacity:1;fill:#ffffff;stroke:#000000" points="21.392,11.064 23.954,8.502 26.347,10.895 23.786,13.455 
			24.729,15.732 28.353,15.732 28.353,19.115 24.731,19.115 23.788,21.392 26.351,23.955 23.958,26.347 21.397,23.786 19.12,24.729 
			19.12,28.353 15.737,28.353 15.737,24.731 13.46,23.788 10.897,26.35 8.506,23.958 11.066,21.397 10.124,19.12 6.5,19.12 
			6.5,15.737 10.121,15.737 11.065,13.461 8.503,10.898 10.895,8.506 13.455,11.066 15.732,10.125 15.732,6.5 19.116,6.5 
			19.116,10.121 "/>
		<circle oryx:anchors="top left" id="ringBackground" style="opacity:1;fill:none;stroke:#000000" cx="17.427" cy="17.426" r="3.714"/>
	</g>
	
	<g id="sendTask">
		<path oryx:anchors="left top" stroke="white" fill="black" stroke-width="1" d="M8,11 L8,21 L24,21 L24,11 L16,17z"/>
		<path oryx:anchors="left top" stroke="white" fill="black" stroke-width="1" d="M7,10 L16,17 L25 10z"/>
	</g>
	
	<g id="receiveTask">
		<path oryx:anchors="left top" stroke="black" fill="none" stroke-width="1" d="M8,11 L8,21 L24,21 L24,11z M8,11 L16,17 L24,11" />
	</g>
	
	<g id="none"></g>
	<g
       id="loop">
      <path
         oryx:anchors="bottom"
         style="opacity:1;fill:none;fill-opacity:1;stroke:#000000;stroke-width:1.5;stroke-linecap:round;stroke-linejoin:round;stroke-miterlimit:2.0999999;stroke-dasharray:none;stroke-opacity:1"
         id="path2396"
         d="M 47.608384,75.188343 L 47.608384,78.188343 L 44.608384,78.188343 M 47.608384,78.188343 A 4.875,4.875 0 1 1 51.639336,78.189378"
         />
    </g>
	
	
	<g id="parallel">
		<path oryx:anchors="bottom" fill="none" stroke="black" d="M46 70 v8 M50 70 v8 M54 70 v8" stroke-width="2" />
	</g>
	<g id="sequential">
		<path oryx:anchors="bottom" fill="none" stroke="#000000" stroke-width="2" d="M46,76h10M46,72h10 M46,68h10"/>
	</g>
	

	<g id="compensation">
		<path oryx:anchors="bottom" fill="none" stroke="black" d="M 62 74 L 66 70 L 66 78 L 62 74 L 62 70 L 58 74 L 62 78 L 62 74" stroke-width="1" />
	</g>
  </g>
</svg>