<?xml version="1.0" standalone="no"?>
<!DOCTYPE svg PUBLIC "-//W3C//DTD SVG 1.1//EN" "http://www.w3.org/Graphics/SVG/1.1/DTD/svg11.dtd" >
<svg xmlns="http://www.w3.org/2000/svg">
<metadata></metadata>
<defs>
<font id="cherokeeregular" horiz-adv-x="2048" >
<font-face units-per-em="2048" ascent="1638" descent="-410" />
<missing-glyph horiz-adv-x="500" />
<glyph horiz-adv-x="0" />
<glyph unicode="&#xd;" />
<glyph unicode="&#x2000;" horiz-adv-x="1027" />
<glyph unicode="&#x2001;" horiz-adv-x="2054" />
<glyph unicode="&#x2002;" horiz-adv-x="1027" />
<glyph unicode="&#x2003;" horiz-adv-x="2054" />
<glyph unicode="&#x2004;" horiz-adv-x="684" />
<glyph unicode="&#x2005;" horiz-adv-x="513" />
<glyph unicode="&#x2006;" horiz-adv-x="342" />
<glyph unicode="&#x2007;" horiz-adv-x="342" />
<glyph unicode="&#x2008;" horiz-adv-x="256" />
<glyph unicode="&#x2009;" horiz-adv-x="410" />
<glyph unicode="&#x200a;" horiz-adv-x="114" />
<glyph unicode="&#x202f;" horiz-adv-x="410" />
<glyph unicode="&#x205f;" horiz-adv-x="513" />
<glyph unicode="&#x25fc;" horiz-adv-x="1000" d="M0 0z" />
<glyph unicode="&#xe008;" d="M152 608l6 -322h1282v272q-54 26 -141 56t-149 53t-124 57t-97 84t-37 116q-2 24 15 50t42 57t50 72t44 113t21 164t-30 161t-75 103t-100 55t-91 25t-62 4h-32q-36 -4 -72 -12t-83 -32t-81 -60t-58 -99t-22 -145q2 -112 28 -196t55 -122t52 -74t23 -64q-10 -66 -39 -116 t-82 -87t-105 -60t-138 -53zM1200 1328h240v-242h160v242h240v160h-240v240h-160v-240h-240v-160z" />
<glyph unicode="&#xe011;" d="M0 1020h286v-72l286 72v-172q0 -76 54 -131t128 -55h706q76 0 129 55t53 131v172h358v70h-358v172q0 76 -53 131t-129 55h-706q-74 0 -128 -55t-54 -131v-172l-286 72v-72h-286v-70z" />
<glyph unicode="&#xe111;" d="M0 1092q0 -150 91 -278t248 -203t341 -75q64 0 148 14l52 -262l204 358q128 76 202 194t74 252v24q-12 222 -209 377t-471 155q-282 0 -481 -162t-199 -394zM1360 1328h240v-240h160v240h240v160h-240v240h-160v-240h-240v-160z" />
<glyph unicode="&#xe114;" d="M0 1448l132 132l868 -868l868 868l132 -132l-934 -934l-66 -66l-66 66z" />
<glyph unicode="&#xe115;" d="M480 1048l66 66l934 934l132 -132l-868 -868l868 -868l-132 -132l-934 934z" />
<glyph unicode="&#xe116;" d="M508 186l132 -132l934 934l66 66l-66 66l-934 934l-132 -132l868 -868z" />
<glyph unicode="&#xe117;" d="M128 310l112 -112l760 760l760 -760l112 112l-738 738l738 738l-112 112l-760 -760l-760 760l-112 -112l738 -738z" />
<glyph unicode="&#xe119;" d="M74 132h6l-2 -4h1842v342q-60 30 -148 62t-156 54t-141 55t-123 69t-83 93t-37 127q-2 30 19 62t52 71t63 91t56 142t26 206q2 84 -18 153t-53 113t-78 78t-88 51t-89 27t-73 12t-49 2q-4 0 -11 1t-13 1q-10 0 -18 -2q-44 -4 -89 -14t-104 -41t-102 -75t-73 -124 t-28 -182q2 -116 24 -206t51 -142t58 -91t48 -71t17 -62q-12 -84 -50 -148l-2 -2q-52 -68 -154 -118t-253 -100t-227 -86v-344z" />
<glyph unicode="&#xe120;" d="M100 328q0 -116 82 -198t198 -82t198 82t82 198v12q-4 86 -55 154t-129 98v758l340 208q78 -70 184 -70q114 0 196 80l342 -218v-406q-90 -24 -147 -99t-57 -169q0 -116 82 -198t198 -82t198 82t82 198v12q-4 82 -52 149t-124 99v464v50l-42 26l-398 252q2 20 2 40v12 q-6 112 -87 190t-193 78q-116 0 -198 -82t-82 -198q0 -28 6 -54l-388 -236l-42 -26v-52v-806q-86 -26 -141 -100t-55 -166zM260 328q0 50 35 85t85 35q48 0 83 -33t37 -81v-6q0 -50 -35 -85t-85 -35t-85 35t-35 85zM880 1768q0 50 35 85t85 35q48 0 83 -33t37 -81v-6 q0 -50 -35 -85t-85 -35t-85 35t-35 85zM1494 675q0 49 35 85t85 36q48 0 83 -34t37 -82v-4q0 -50 -35 -85t-85 -35t-85 35t-35 84z" />
<glyph unicode="&#xe121;" d="M80 1408l68 -68l402 400v-1572h104v1572l400 -400l70 68l-488 488l-34 34l-34 -34zM876 688l488 -488l34 -34l34 34l488 488l-68 68l-402 -400v1572h-104v-1572l-400 400z" />
<glyph unicode="&#xe122;" d="M0 288h160h1840v160v1200v160h-160h-1680h-160v-160v-1360zM160 448v1080l726 -726l114 -114l840 840v-1080h-1680zM266 1648h1468l-734 -734zM2010 1798h2v12q2 0 3 1t2 1h1h2v2h-2q-2 0 -3 -1t-3 -1v2h-2v-16z" />
<glyph unicode="&#xe123;" d="M0 1048q0 -272 134 -502t364 -364t502 -134t502 134t364 364t134 502v44q-10 196 -92 374t-216 305t-314 202t-378 75q-272 0 -502 -134t-364 -364t-134 -502zM160 1048q0 348 246 594t594 246q222 0 411 -106t304 -291t125 -407v-36q0 -348 -246 -594t-594 -246 t-594 246t-246 594zM844 1024q0 -74 53 -127t127 -53t127 53t53 127v8q0 22 -8 44l248 248l-84 84l-236 -234q-28 18 -60 26v564h-120v-578q-46 -24 -73 -67t-27 -95z" />
<glyph unicode="&#xe124;" d="M40 88h170h1750v170v428h-170v-428h-1580v428h-170v-598zM478 1144l488 -488l34 -34l34 34l488 488l-70 68l-400 -400v1092h-104v-1092l-400 400z" />
<glyph unicode="&#xe125;" d="M40 88h170h1750v170v1750h-120h-50h-1580h-10h-160v-1920zM210 258v1590h1580v-1590h-1580zM292 1484l278 -902h244l172 516h14l166 -520h246l296 908h-252l-168 -576h-12l-184 572h-180l-192 -568h-14l-162 568z" />
<glyph unicode="&#xe126;" d="M40 88h170h1750v170v1750h-120h-50h-1580h-10h-160v-1920zM210 258v1590h1580v-1590h-1580zM434 564h330l242 326l228 -322h332l-402 518l350 442h-342l-158 -236l-162 240h-330l336 -446z" />
<glyph unicode="&#xe127;" d="M40 88h170h1750v170v1750h-120h-50h-1580h-10h-160v-1920zM210 258v1590h1580v-1590h-1580zM608 544h246v316h152q104 0 174 30q70 28 126 86q42 42 64 104q22 64 22 128q0 84 -30 144t-88 100q-48 32 -110 46q-62 18 -152 18h-404v-972zM854 1042v292h42q60 0 96 -2 q38 -2 76 -18q28 -12 50 -42q22 -28 22 -70t-12 -70q-10 -30 -34 -50q-26 -24 -68 -32q-40 -8 -102 -8h-70z" />
<glyph unicode="&#xe128;" d="M40 88h170h1750v170v1750h-120h-50h-1580h-10h-160v-1920zM210 258v1590h1580v-1590h-1580zM396 384q6 -18 30 -35t52 -23q86 -20 182 58q84 70 182 236l18 30l52 22q110 46 206 78q106 36 196 58l22 4l20 -14q80 -66 146 -70q38 -4 76 16q44 22 58 50q8 16 8 35t-6 33 q-18 34 -70 42q-80 14 -164 -2q-32 -4 -32 -3t-20 25q-44 56 -82 116q-74 124 -154 280l-26 50l8 50q28 184 20 262q-8 76 -48 98q-10 6 -36 6q-18 -2 -32 -6q-40 -12 -58 -80q-6 -20 -6 -76q0 -78 18 -156q12 -52 36 -112l6 -10l-8 -44q-12 -58 -40 -162 q-68 -248 -138 -412l-14 -32l-50 -24q-124 -62 -234 -132q-136 -88 -118 -156zM504 418q0 30 25 55t91 61q26 16 74 40t52 24q2 -2 -10 -22q-20 -40 -62 -88t-74 -68q-20 -12 -39 -18t-36 -8t-19 4t-2 20zM910 748l12 28q68 150 118 358l18 68l2 -3t5 -8t5 -11 q80 -160 184 -280q22 -26 22 -27t-38 -11q-82 -20 -196 -64q-44 -16 -88 -34q-12 -4 -22 -8t-16 -6zM1002 1616q-8 78 12 88q2 2 4 2q8 0 15 -8t9 -20q2 -16 -2 -51t-12 -55q-8 -24 -14 -22q-6 10 -12 66zM1444 832h12q4 2 8 2q26 0 41 -8t15 -26q0 -8 -2 -8q-6 0 -33 13 t-35 21z" />
<glyph unicode="&#xe129;" d="M40 88h170h1750v170v1750h-120h-50h-1580h-10h-160v-1920zM210 258v1590h1580v-1590h-1580zM320 568h880v160h-880v-160zM320 968h1360v160h-1360v-160zM320 1368h1360v160h-1360v-160z" />
<glyph unicode="&#xe130;" d="M40 88h170h1750v170v1230h-120h-50h-1580h-10h-160v-1400zM140 1568h980l220 240h360v-260h160v420h-40h-120h-420l-220 -240h-920v-160zM210 258v1070h1580v-1070h-1580z" />
<glyph unicode="&#xe131;" d="M40 88h170h1750v170v1750h-120h-50h-1580h-10h-160v-1920zM210 258v1590h1580v-1590h-1580zM300 1548q0 -92 64 -156t156 -64t156 64t64 156v10q-4 88 -68 149t-152 61q-92 0 -156 -64t-64 -156zM366 378h1314v548l-328 512l-292 -476l-220 220z" />
<glyph unicode="&#xe132;" d="M0 1361q0 -61 43 -104t105 -43q58 0 100 39t48 95h202q2 -2 4 -6l124 -124q2 -2 6 -4v-514h2v-6h354v-182q0 -26 19 -45t45 -19h706q26 0 45 19t19 45v174h178v18h-178v194q0 28 -19 47t-45 19h-706q-26 0 -45 -19t-19 -47v-186h-338v500q4 2 8 6l126 124q2 4 4 6h200 v-182q0 -28 19 -47t45 -19h706q26 0 45 19t19 47v182h178v18h-178v186q0 26 -19 45t-45 19h-706q-26 0 -45 -19t-19 -45v-186h-200q0 6 -4 10l-126 124q-16 16 -32 0l-124 -124q-4 -4 -6 -10h-200v2q-2 60 -45 101t-103 41q-62 0 -105 -44t-43 -105z" />
<glyph unicode="&#xe133;" d="M0 486q0 -14 9 -23t23 -9h956v-198h24v198h956q14 0 23 9t9 23v282q0 14 -9 23t-23 9h-956v76q24 4 38 22t14 40v4q0 22 -15 39t-37 21v58h956q14 0 23 9t9 23v284q0 12 -9 22t-23 10h-956v34q24 4 38 22t14 42v2q0 22 -15 39t-37 21v36h384q58 0 98 33t40 81v10 q0 48 -40 81t-98 33h-792q-58 0 -98 -33t-40 -81v-10q0 -48 40 -81t98 -33h384v-36q-22 -4 -37 -22t-15 -41t15 -41t37 -22v-34h-956q-14 0 -23 -10t-9 -22v-284q0 -14 9 -23t23 -9h956v-58q-22 -4 -37 -22t-15 -41t15 -41t37 -22v-76h-956q-14 0 -23 -9t-9 -23v-282z M958 926v24h30v32h24v-32h30v-24h-30v-30h-24v30h-30zM958 1494v24h30v30h24v-30h30v-24h-30v-32h-24v32h-30z" />
<glyph unicode="&#xe134;" d="M0 816q0 -10 7 -17t17 -7h1946q10 0 16 7t6 17v248q0 10 -6 17t-16 7h-1946q-10 0 -17 -7t-7 -17v-248zM0 1134h694v34h-694v-34zM0 1332q0 -10 7 -17t17 -7h900q10 0 17 7t7 17v120q0 10 -7 17t-17 7h-900q-10 0 -17 -7t-7 -17v-120zM0 1522h448v34h-448v-34zM1090 1330 q0 -10 6 -16t14 -6h866q10 0 16 6t6 16v124q0 10 -6 16t-16 6h-866q-8 0 -14 -6t-6 -16v-124zM1090 1520h448v36h-448v-36zM1270 512q0 -10 6 -16t16 -6h300q8 0 14 6t6 16v126q0 20 -20 20h-300q-22 0 -22 -20v-126zM1658 512q0 -10 6 -16t16 -6h300q8 0 14 6t6 16v126 q0 20 -20 20h-300q-22 0 -22 -20v-126zM1842 1414l16 16l48 -46l50 50l18 -18l-60 -56l-8 -8l-8 8z" />
</font>
</defs>
</svg>
